<?xml version="1.0" encoding="UTF-8" standalone="no"?>
<svg width="191.206mm" height="101.6mm"
 xmlns="http://www.w3.org/2000/svg" xmlns:xlink="http://www.w3.org/1999/xlink"  version="1.2" baseProfile="tiny">
<title>Qt SVG Document</title>
<desc>Generated with Qt</desc>
<defs>
</defs>
<g fill="none" stroke="black" stroke-width="1" fill-rule="evenodd" stroke-linecap="square" stroke-linejoin="bevel" >

<g fill="none" stroke="#000000" stroke-opacity="1" stroke-width="1" stroke-linecap="square" stroke-linejoin="bevel" transform="matrix(1,0,0,1,0,0)"
font-family="Ubuntu" font-size="11" font-weight="400" font-style="normal" 
>
</g>

<g fill="none" stroke="#000000" stroke-opacity="1" stroke-width="1" stroke-linecap="square" stroke-linejoin="bevel" transform="matrix(1,0,0,1,0,0)"
font-family="Ubuntu" font-size="11" font-weight="400" font-style="normal" 
>
</g>

<g fill="none" stroke="#000000" stroke-opacity="1" stroke-width="1" stroke-linecap="square" stroke-linejoin="bevel" transform="matrix(2,0,0,2,0,288)"
font-family="Ubuntu" font-size="11" font-weight="400" font-style="normal" 
>
</g>

<g fill="#ffffff" fill-opacity="1" stroke="none" transform="matrix(2,0,0,2,0,288)"
font-family="Ubuntu" font-size="11" font-weight="400" font-style="normal" 
>
<rect x="0" y="-144" width="270.89" height="144"/>
</g>

<g fill="none" stroke="#000000" stroke-opacity="1" stroke-width="1" stroke-linecap="square" stroke-linejoin="bevel" transform="matrix(2,0,0,2,0,288)"
font-family="Ubuntu" font-size="11" font-weight="400" font-style="normal" 
>
</g>

<g fill="none" stroke="#000000" stroke-opacity="1" stroke-width="1" stroke-linecap="square" stroke-linejoin="bevel" transform="matrix(2,0,0,2,0,288)"
font-family="Ubuntu" font-size="11" font-weight="400" font-style="normal" 
>
</g>

<g fill="none" stroke="#000000" stroke-opacity="1" stroke-width="1" stroke-linecap="square" stroke-linejoin="bevel" transform="matrix(2,0,0,2,0,288)"
font-family="Ubuntu" font-size="11" font-weight="400" font-style="normal" 
>
</g>

<g fill="none" stroke="#000000" stroke-opacity="1" stroke-width="1" stroke-linecap="square" stroke-linejoin="bevel" transform="matrix(2,0,0,2,0,288)"
font-family="Ubuntu" font-size="11" font-weight="400" font-style="normal" 
>
</g>

<g fill="none" stroke="#000000" stroke-opacity="1" stroke-width="1" stroke-linecap="square" stroke-linejoin="round" transform="matrix(2,0,0,2,0,288)"
font-family="Ubuntu" font-size="11" font-weight="400" font-style="normal" 
>
<rect x="0.5" y="-89.5" width="53" height="35"/>
</g>

<g fill="none" stroke="#000000" stroke-opacity="1" stroke-width="1" stroke-linecap="square" stroke-linejoin="bevel" transform="matrix(2,0,0,2,0,288)"
font-family="Ubuntu" font-size="11" font-weight="400" font-style="normal" 
>
</g>

<g fill="none" stroke="#000000" stroke-opacity="1" stroke-width="1" stroke-linecap="square" stroke-linejoin="bevel" transform="matrix(2,0,0,2,22.2188,130)"
font-family="Ubuntu" font-size="11" font-weight="400" font-style="normal" 
>
</g>

<g fill="none" stroke="#000000" stroke-opacity="1" stroke-width="1" stroke-linecap="square" stroke-linejoin="bevel" transform="matrix(2,0,0,2,22.2188,130)"
font-family="sans" font-size="11" font-weight="100" font-style="normal" 
>
</g>

<g fill="#000000" fill-opacity="1" stroke="#000000" stroke-opacity="1" stroke-width="1" stroke-linecap="square" stroke-linejoin="round" transform="matrix(2,0,0,2,22.2188,130)"
font-family="sans" font-size="11" font-weight="100" font-style="normal" 
>
<path vector-effect="none" fill-rule="nonzero" d="M2.96875,2.98438 L3.53125,2.98438 L0.734375,12.0156 L0.171875,12.0156 L2.96875,2.98438 M8.21875,5.40625 C8.13542,5.36458 8.02604,5.33333 7.89063,5.3125 C7.76563,5.29167 7.61458,5.28125 7.4375,5.28125 C6.82292,5.28125 6.31771,5.50521 5.92188,5.95313 C5.59896,6.31771 5.4375,6.94271 5.4375,7.82813 L5.4375,11 L4.95313,11 L4.95313,4.98438 L5.4375,4.98438 L5.4375,6.10938 C5.60417,5.78646 5.83333,5.51563 6.125,5.29688 C6.52083,4.99479 6.98958,4.84375 7.53125,4.84375 C7.67708,4.84375 7.80208,4.84896 7.90625,4.85938 C8.01042,4.85938 8.11458,4.86979 8.21875,4.89063 L8.21875,5.40625 M14.1563,7.75 L14.1563,8.0625 L9.59375,8.0625 C9.59375,9.02083 9.78125,9.69792 10.1563,10.0938 C10.5729,10.5208 11.1875,10.7344 12,10.7344 C12.2188,10.7344 12.5052,10.6875 12.8594,10.5938 C13.2135,10.5 13.5677,10.3594 13.9219,10.1719 L13.9219,10.6875 C13.5677,10.8438 13.2057,10.9609 12.8359,11.0391 C12.4661,11.1172 12.1719,11.1563 11.9531,11.1563 C11.026,11.1563 10.3281,10.9063 9.85938,10.4063 C9.34896,9.875 9.09375,9.09375 9.09375,8.0625 C9.09375,6.98958 9.32292,6.1875 9.78125,5.65625 C10.2604,5.11458 10.9271,4.84375 11.7813,4.84375 C12.5625,4.84375 13.1563,5.10417 13.5625,5.625 C13.9583,6.16667 14.1563,6.875 14.1563,7.75 M13.6563,7.64063 C13.6563,6.79688 13.4635,6.18229 13.0781,5.79688 C12.7656,5.45313 12.3333,5.28125 11.7813,5.28125 C11.1875,5.28125 10.6875,5.45833 10.2813,5.8125 C9.90625,6.14583 9.68229,6.75521 9.60938,7.64063 L13.6563,7.64063 M19.6406,5.15625 L19.6406,5.70313 C19.2865,5.50521 19.0677,5.39583 18.9844,5.375 C18.7344,5.32292 18.4219,5.29167 18.0469,5.28125 C17.4844,5.28125 17.0417,5.39063 16.7188,5.60938 C16.4688,5.79688 16.3438,6.11458 16.3438,6.5625 C16.3438,6.875 16.4635,7.11458 16.7031,7.28125 C16.9427,7.46875 17.2917,7.61458 17.75,7.71875 L18.0938,7.78125 C18.6667,7.90625 19.099,8.08333 19.3906,8.3125 C19.7344,8.58333 19.9115,8.92708 19.9219,9.34375 C19.9219,9.90625 19.7552,10.349 19.4219,10.6719 C19.0677,10.9948 18.4896,11.1563 17.6875,11.1563 C17.25,11.1563 16.9167,11.125 16.6875,11.0625 C16.4063,10.9896 16.1146,10.8958 15.8125,10.7813 L15.8125,10.1563 C16.25,10.4063 16.5313,10.5521 16.6563,10.5938 C17.0104,10.6875 17.3646,10.7344 17.7188,10.7344 C18.2917,10.7344 18.7188,10.6146 19,10.375 C19.2813,10.125 19.4219,9.80729 19.4219,9.42188 C19.4219,9.08854 19.3281,8.84896 19.1406,8.70313 C18.8698,8.48438 18.4427,8.30729 17.8594,8.17188 L17.5156,8.09375 C17.0052,7.96875 16.6198,7.80208 16.3594,7.59375 C16.026,7.32292 15.8594,6.99479 15.8594,6.60938 C15.8594,5.98438 16.0599,5.53385 16.4609,5.25781 C16.862,4.98177 17.3542,4.84375 17.9375,4.84375 C18.4375,4.84375 18.7813,4.86979 18.9688,4.92188 C19.1979,4.98438 19.4219,5.0625 19.6406,5.15625 M26.6406,7.75 L26.6406,8.0625 L22.0781,8.0625 C22.0781,9.02083 22.2656,9.69792 22.6406,10.0938 C23.0573,10.5208 23.6719,10.7344 24.4844,10.7344 C24.7031,10.7344 24.9896,10.6875 25.3438,10.5938 C25.6979,10.5 26.0521,10.3594 26.4063,10.1719 L26.4063,10.6875 C26.0521,10.8438 25.6901,10.9609 25.3203,11.0391 C24.9505,11.1172 24.6563,11.1563 24.4375,11.1563 C23.5104,11.1563 22.8125,10.9063 22.3438,10.4063 C21.8333,9.875 21.5781,9.09375 21.5781,8.0625 C21.5781,6.98958 21.8073,6.1875 22.2656,5.65625 C22.7448,5.11458 23.4115,4.84375 24.2656,4.84375 C25.0469,4.84375 25.6406,5.10417 26.0469,5.625 C26.4427,6.16667 26.6406,6.875 26.6406,7.75 M26.1406,7.64063 C26.1406,6.79688 25.9479,6.18229 25.5625,5.79688 C25.25,5.45313 24.8177,5.28125 24.2656,5.28125 C23.6719,5.28125 23.1719,5.45833 22.7656,5.8125 C22.3906,6.14583 22.1667,6.75521 22.0938,7.64063 L26.1406,7.64063 M29.2344,3.28125 L29.2344,4.98438 L31.2656,4.98438 L31.2656,5.40625 L29.2344,5.40625 L29.2344,9.01563 C29.2344,9.47396 29.2917,9.79688 29.4063,9.98438 C29.6563,10.3802 30.0156,10.5781 30.4844,10.5781 L31.2656,10.5781 L31.2656,11 L30.5,11 C30.0104,11 29.5938,10.8568 29.25,10.5703 C28.9063,10.2839 28.7344,9.76563 28.7344,9.01563 L28.7344,5.40625 L28.0156,5.40625 L28.0156,4.98438 L28.7344,4.98438 L28.7344,3.28125 L29.2344,3.28125"/>
</g>

<g fill="none" stroke="#000000" stroke-opacity="1" stroke-width="1" stroke-linecap="square" stroke-linejoin="bevel" transform="matrix(2,0,0,2,22.2188,130)"
font-family="sans" font-size="11" font-weight="100" font-style="normal" 
>
</g>

<g fill="none" stroke="#000000" stroke-opacity="1" stroke-width="1" stroke-linecap="square" stroke-linejoin="bevel" transform="matrix(2,0,0,2,22.2188,130)"
font-family="Ubuntu" font-size="11" font-weight="400" font-style="normal" 
>
</g>

<g fill="none" stroke="#000000" stroke-opacity="1" stroke-width="1" stroke-linecap="square" stroke-linejoin="bevel" transform="matrix(2,0,0,2,0,288)"
font-family="Ubuntu" font-size="11" font-weight="400" font-style="normal" 
>
</g>

<g fill="none" stroke="#000000" stroke-opacity="1" stroke-width="1" stroke-linecap="square" stroke-linejoin="bevel" transform="matrix(2,0,0,2,0,288)"
font-family="Ubuntu" font-size="11" font-weight="400" font-style="normal" 
>
</g>

<g fill="none" stroke="#000000" stroke-opacity="1" stroke-width="1" stroke-linecap="square" stroke-linejoin="bevel" transform="matrix(2,0,0,2,0,288)"
font-family="Ubuntu" font-size="11" font-weight="400" font-style="normal" 
>
</g>

<g fill="none" stroke="#000000" stroke-opacity="1" stroke-width="1" stroke-linecap="square" stroke-linejoin="round" transform="matrix(2,0,0,2,0,288)"
font-family="Ubuntu" font-size="11" font-weight="400" font-style="normal" 
>
<ellipse cx="121.95" cy="-72" rx="53.446" ry="17.5"/>
</g>

<g fill="none" stroke="#000000" stroke-opacity="1" stroke-width="1" stroke-linecap="square" stroke-linejoin="bevel" transform="matrix(2,0,0,2,0,288)"
font-family="Ubuntu" font-size="11" font-weight="400" font-style="normal" 
>
</g>

<g fill="none" stroke="#000000" stroke-opacity="1" stroke-width="1" stroke-linecap="square" stroke-linejoin="bevel" transform="matrix(2,0,0,2,177.447,130)"
font-family="Ubuntu" font-size="11" font-weight="400" font-style="normal" 
>
</g>

<g fill="none" stroke="#000000" stroke-opacity="1" stroke-width="1" stroke-linecap="square" stroke-linejoin="bevel" transform="matrix(2,0,0,2,177.447,130)"
font-family="sans" font-size="11" font-weight="100" font-style="normal" 
>
</g>

<g fill="#000000" fill-opacity="1" stroke="#000000" stroke-opacity="1" stroke-width="1" stroke-linecap="square" stroke-linejoin="round" transform="matrix(2,0,0,2,177.447,130)"
font-family="sans" font-size="11" font-weight="100" font-style="normal" 
>
<path vector-effect="none" fill-rule="nonzero" d="M2.96875,2.98438 L3.53125,2.98438 L0.734375,12.0156 L0.171875,12.0156 L2.96875,2.98438 M8.35938,5.15625 L8.35938,5.70313 C8.00521,5.50521 7.78646,5.39583 7.70313,5.375 C7.45313,5.32292 7.14063,5.29167 6.76563,5.28125 C6.20313,5.28125 5.76042,5.39063 5.4375,5.60938 C5.1875,5.79688 5.0625,6.11458 5.0625,6.5625 C5.0625,6.875 5.18229,7.11458 5.42188,7.28125 C5.66146,7.46875 6.01042,7.61458 6.46875,7.71875 L6.8125,7.78125 C7.38542,7.90625 7.81771,8.08333 8.10938,8.3125 C8.45313,8.58333 8.63021,8.92708 8.64063,9.34375 C8.64063,9.90625 8.47396,10.349 8.14063,10.6719 C7.78646,10.9948 7.20833,11.1563 6.40625,11.1563 C5.96875,11.1563 5.63542,11.125 5.40625,11.0625 C5.125,10.9896 4.83333,10.8958 4.53125,10.7813 L4.53125,10.1563 C4.96875,10.4063 5.25,10.5521 5.375,10.5938 C5.72917,10.6875 6.08333,10.7344 6.4375,10.7344 C7.01042,10.7344 7.4375,10.6146 7.71875,10.375 C8,10.125 8.14063,9.80729 8.14063,9.42188 C8.14063,9.08854 8.04688,8.84896 7.85938,8.70313 C7.58854,8.48438 7.16146,8.30729 6.57813,8.17188 L6.23438,8.09375 C5.72396,7.96875 5.33854,7.80208 5.07813,7.59375 C4.74479,7.32292 4.57813,6.99479 4.57813,6.60938 C4.57813,5.98438 4.77865,5.53385 5.17969,5.25781 C5.58073,4.98177 6.07292,4.84375 6.65625,4.84375 C7.15625,4.84375 7.5,4.86979 7.6875,4.92188 C7.91667,4.98438 8.14063,5.0625 8.35938,5.15625 M15.3594,7.75 L15.3594,8.0625 L10.7969,8.0625 C10.7969,9.02083 10.9844,9.69792 11.3594,10.0938 C11.776,10.5208 12.3906,10.7344 13.2031,10.7344 C13.4219,10.7344 13.7083,10.6875 14.0625,10.5938 C14.4167,10.5 14.7708,10.3594 15.125,10.1719 L15.125,10.6875 C14.7708,10.8438 14.4089,10.9609 14.0391,11.0391 C13.6693,11.1172 13.375,11.1563 13.1563,11.1563 C12.2292,11.1563 11.5313,10.9063 11.0625,10.4063 C10.5521,9.875 10.2969,9.09375 10.2969,8.0625 C10.2969,6.98958 10.526,6.1875 10.9844,5.65625 C11.4635,5.11458 12.1302,4.84375 12.9844,4.84375 C13.7656,4.84375 14.3594,5.10417 14.7656,5.625 C15.1615,6.16667 15.3594,6.875 15.3594,7.75 M14.8594,7.64063 C14.8594,6.79688 14.6667,6.18229 14.2813,5.79688 C13.9688,5.45313 13.5365,5.28125 12.9844,5.28125 C12.3906,5.28125 11.8906,5.45833 11.4844,5.8125 C11.1094,6.14583 10.8854,6.75521 10.8125,7.64063 L14.8594,7.64063 M20.7031,5.40625 C20.6198,5.36458 20.5104,5.33333 20.375,5.3125 C20.25,5.29167 20.099,5.28125 19.9219,5.28125 C19.3073,5.28125 18.8021,5.50521 18.4063,5.95313 C18.0833,6.31771 17.9219,6.94271 17.9219,7.82813 L17.9219,11 L17.4375,11 L17.4375,4.98438 L17.9219,4.98438 L17.9219,6.10938 C18.0885,5.78646 18.3177,5.51563 18.6094,5.29688 C19.0052,4.99479 19.474,4.84375 20.0156,4.84375 C20.1615,4.84375 20.2865,4.84896 20.3906,4.85938 C20.4948,4.85938 20.599,4.86979 20.7031,4.89063 L20.7031,5.40625 M21.9375,4.98438 L22.4375,4.98438 L22.4375,11 L21.9375,11 L21.9375,4.98438 M21.9375,2.64063 L22.4375,2.64063 L22.4375,3.3125 L21.9375,3.3125 L21.9375,2.64063 M27.4063,7.60938 C26.6042,7.60938 26.0286,7.75 25.6797,8.03125 C25.3307,8.3125 25.1563,8.72396 25.1563,9.26563 C25.1563,9.79688 25.3021,10.1745 25.5938,10.3984 C25.8854,10.6224 26.2292,10.7344 26.625,10.7344 C27.375,10.7344 27.9167,10.4167 28.25,9.78125 C28.5833,9.13542 28.75,8.53125 28.75,7.96875 L28.75,7.60938 L27.4063,7.60938 M29.25,7.5625 L29.25,11 L28.75,11 L28.75,9.35938 C28.4792,10.1615 28.1146,10.6719 27.6563,10.8906 C27.3021,11.0677 26.9427,11.1563 26.5781,11.1563 C25.9844,11.1563 25.5156,10.9948 25.1719,10.6719 C24.8281,10.349 24.6563,9.8776 24.6563,9.25781 C24.6563,8.63802 24.8802,8.14063 25.3281,7.76563 C25.776,7.39063 26.5052,7.20313 27.5156,7.20313 L28.75,7.20313 L28.75,7.10938 C28.75,6.57813 28.5938,6.14063 28.2813,5.79688 C27.9896,5.45313 27.4948,5.28125 26.7969,5.28125 C26.4531,5.28125 26.1042,5.34375 25.75,5.46875 C25.5208,5.55208 25.2188,5.71875 24.8438,5.96875 L24.8438,5.4375 C25.1667,5.23958 25.4688,5.09896 25.75,5.01563 C26.1458,4.90104 26.526,4.84375 26.8906,4.84375 C27.6094,4.84375 28.1979,5.05729 28.6563,5.48438 C29.0521,5.84896 29.25,6.54167 29.25,7.5625 M31.7344,2.64063 L32.2188,2.64063 L32.2188,11 L31.7344,11 L31.7344,2.64063 M39.1406,13.1719 L39.1406,13.5938 L33.4219,13.5938 L33.4219,13.1719 L39.1406,13.1719 M44.8281,7.375 L44.8281,11 L44.3281,11 L44.3281,7.40625 C44.3281,6.625 44.2031,6.07552 43.9531,5.75781 C43.7031,5.4401 43.3333,5.28125 42.8438,5.28125 C42.2708,5.28125 41.7865,5.45313 41.3906,5.79688 C40.974,6.14063 40.7656,6.73958 40.7656,7.59375 L40.7656,11 L40.2813,11 L40.2813,4.98438 L40.7656,4.98438 L40.7656,6.10938 C40.9427,5.74479 41.1771,5.46875 41.4688,5.28125 C41.8854,4.98958 42.349,4.84375 42.8594,4.84375 C43.4635,4.84375 43.9427,5.04688 44.2969,5.45313 C44.651,5.84896 44.8281,6.48958 44.8281,7.375 M50.8281,6.01563 C50.474,5.52604 49.9896,5.28125 49.375,5.28125 C48.7604,5.28125 48.276,5.52604 47.9219,6.01563 C47.5677,6.49479 47.3906,7.15104 47.3906,7.98438 C47.3906,8.83854 47.5677,9.51042 47.9219,10 C48.276,10.4896 48.7604,10.7344 49.375,10.7344 C49.9896,10.7344 50.474,10.4896 50.8281,10 C51.1823,9.5 51.3594,8.82813 51.3594,7.98438 C51.3594,7.16146 51.1823,6.50521 50.8281,6.01563 M49.375,4.84375 C50.1354,4.84375 50.7396,5.13021 51.1875,5.70313 C51.6354,6.27604 51.8594,7.03646 51.8594,7.98438 C51.8594,8.97396 51.6354,9.75521 51.1875,10.3281 C50.7396,10.901 50.1354,11.1875 49.375,11.1875 C48.5938,11.1875 47.9792,10.901 47.5313,10.3281 C47.0938,9.75521 46.875,8.97396 46.875,7.98438 C46.875,7.02604 47.099,6.26302 47.5469,5.69531 C47.9948,5.1276 48.6042,4.84375 49.375,4.84375 M57.9688,6.35938 L57.9688,2.64063 L58.4375,2.64063 L58.4375,11 L57.9688,11 L57.9688,9.64063 C57.7396,10.1615 57.4896,10.5156 57.2188,10.7031 C56.8229,11.0052 56.4427,11.1563 56.0781,11.1563 C55.3698,11.1563 54.7786,10.8672 54.3047,10.2891 C53.8307,9.71094 53.5938,8.94792 53.5938,8 C53.5938,7.05208 53.8307,6.28906 54.3047,5.71094 C54.7786,5.13281 55.3698,4.84375 56.0781,4.84375 C56.4427,4.84375 56.8229,4.98958 57.2188,5.28125 C57.4896,5.47917 57.7396,5.83854 57.9688,6.35938 M54.7344,5.90625 C54.3177,6.32292 54.1094,7.02083 54.1094,8 C54.1094,8.97917 54.3177,9.67708 54.7344,10.0938 C55.151,10.5104 55.5885,10.7188 56.0469,10.7188 C56.4948,10.7188 56.9271,10.5104 57.3438,10.0938 C57.75,9.67708 57.9531,8.97917 57.9531,8 C57.9531,7.02083 57.75,6.32292 57.3438,5.90625 C56.9271,5.48958 56.4948,5.28125 56.0469,5.28125 C55.5885,5.28125 55.151,5.48958 54.7344,5.90625 M65.625,7.75 L65.625,8.0625 L61.0625,8.0625 C61.0625,9.02083 61.25,9.69792 61.625,10.0938 C62.0417,10.5208 62.6563,10.7344 63.4688,10.7344 C63.6875,10.7344 63.974,10.6875 64.3281,10.5938 C64.6823,10.5 65.0365,10.3594 65.3906,10.1719 L65.3906,10.6875 C65.0365,10.8438 64.6745,10.9609 64.3047,11.0391 C63.9349,11.1172 63.6406,11.1563 63.4219,11.1563 C62.4948,11.1563 61.7969,10.9063 61.3281,10.4063 C60.8177,9.875 60.5625,9.09375 60.5625,8.0625 C60.5625,6.98958 60.7917,6.1875 61.25,5.65625 C61.7292,5.11458 62.3958,4.84375 63.25,4.84375 C64.0313,4.84375 64.625,5.10417 65.0313,5.625 C65.4271,6.16667 65.625,6.875 65.625,7.75 M65.125,7.64063 C65.125,6.79688 64.9323,6.18229 64.5469,5.79688 C64.2344,5.45313 63.8021,5.28125 63.25,5.28125 C62.6563,5.28125 62.1563,5.45833 61.75,5.8125 C61.375,6.14583 61.151,6.75521 61.0781,7.64063 L65.125,7.64063"/>
</g>

<g fill="none" stroke="#000000" stroke-opacity="1" stroke-width="1" stroke-linecap="square" stroke-linejoin="bevel" transform="matrix(2,0,0,2,177.447,130)"
font-family="sans" font-size="11" font-weight="100" font-style="normal" 
>
</g>

<g fill="none" stroke="#000000" stroke-opacity="1" stroke-width="1" stroke-linecap="square" stroke-linejoin="bevel" transform="matrix(2,0,0,2,177.447,130)"
font-family="Ubuntu" font-size="11" font-weight="400" font-style="normal" 
>
</g>

<g fill="none" stroke="#000000" stroke-opacity="1" stroke-width="1" stroke-linecap="square" stroke-linejoin="bevel" transform="matrix(2,0,0,2,0,288)"
font-family="Ubuntu" font-size="11" font-weight="400" font-style="normal" 
>
</g>

<g fill="none" stroke="#000000" stroke-opacity="1" stroke-width="1" stroke-linecap="square" stroke-linejoin="bevel" transform="matrix(2,0,0,2,0,288)"
font-family="Ubuntu" font-size="11" font-weight="400" font-style="normal" 
>
</g>

<g fill="none" stroke="#000000" stroke-opacity="1" stroke-width="1" stroke-linecap="square" stroke-linejoin="bevel" transform="matrix(2,0,0,2,0,288)"
font-family="Ubuntu" font-size="11" font-weight="400" font-style="normal" 
>
</g>

<g fill="none" stroke="#000000" stroke-opacity="1" stroke-width="1" stroke-linecap="square" stroke-linejoin="round" transform="matrix(2,0,0,2,0,288)"
font-family="Ubuntu" font-size="11" font-weight="400" font-style="normal" 
>
<rect x="195.39" y="-143.5" width="69.9999" height="35"/>
</g>

<g fill="none" stroke="#000000" stroke-opacity="1" stroke-width="1" stroke-linecap="square" stroke-linejoin="bevel" transform="matrix(2,0,0,2,0,288)"
font-family="Ubuntu" font-size="11" font-weight="400" font-style="normal" 
>
</g>

<g fill="none" stroke="#000000" stroke-opacity="1" stroke-width="1" stroke-linecap="square" stroke-linejoin="bevel" transform="matrix(2,0,0,2,408.108,22)"
font-family="Ubuntu" font-size="11" font-weight="400" font-style="normal" 
>
</g>

<g fill="none" stroke="#000000" stroke-opacity="1" stroke-width="1" stroke-linecap="square" stroke-linejoin="bevel" transform="matrix(2,0,0,2,408.108,22)"
font-family="sans" font-size="11" font-weight="100" font-style="normal" 
>
</g>

<g fill="#000000" fill-opacity="1" stroke="#000000" stroke-opacity="1" stroke-width="1" stroke-linecap="square" stroke-linejoin="round" transform="matrix(2,0,0,2,408.108,22)"
font-family="sans" font-size="11" font-weight="100" font-style="normal" 
>
<path vector-effect="none" fill-rule="nonzero" d="M2.96875,2.98438 L3.53125,2.98438 L0.734375,12.0156 L0.171875,12.0156 L2.96875,2.98438 M5.46875,3.28125 L5.46875,4.98438 L7.5,4.98438 L7.5,5.40625 L5.46875,5.40625 L5.46875,9.01563 C5.46875,9.47396 5.52604,9.79688 5.64063,9.98438 C5.89063,10.3802 6.25,10.5781 6.71875,10.5781 L7.5,10.5781 L7.5,11 L6.73438,11 C6.24479,11 5.82813,10.8568 5.48438,10.5703 C5.14063,10.2839 4.96875,9.76563 4.96875,9.01563 L4.96875,5.40625 L4.25,5.40625 L4.25,4.98438 L4.96875,4.98438 L4.96875,3.28125 L5.46875,3.28125 M9.25,4.98438 L9.75,4.98438 L9.75,11 L9.25,11 L9.25,4.98438 M9.25,2.64063 L9.75,2.64063 L9.75,3.3125 L9.25,3.3125 L9.25,2.64063 M16.4219,5.28125 L16.4219,5.79688 C16.1302,5.61979 15.8854,5.5 15.6875,5.4375 C15.3542,5.33333 15.0365,5.28125 14.7344,5.28125 C13.8698,5.28125 13.25,5.5026 12.875,5.94531 C12.5,6.38802 12.3125,7.07292 12.3125,8 C12.3125,8.9375 12.5,9.6276 12.875,10.0703 C13.25,10.513 13.8698,10.7344 14.7344,10.7344 C15.026,10.7344 15.3073,10.6927 15.5781,10.6094 C15.8698,10.5365 16.151,10.4219 16.4219,10.2656 L16.4219,10.7656 C16.151,10.901 15.8698,11 15.5781,11.0625 C15.276,11.125 14.9792,11.1563 14.6875,11.1563 C13.8125,11.1563 13.1146,10.9167 12.5938,10.4375 C12.0729,9.95833 11.8125,9.14323 11.8125,7.99219 C11.8125,6.84115 12.0729,6.02604 12.5938,5.54688 C13.1146,5.07813 13.8125,4.84375 14.6875,4.84375 C14.9792,4.84375 15.2865,4.88542 15.6094,4.96875 C15.9323,5.04167 16.2031,5.14583 16.4219,5.28125 M18.8594,2.64063 L19.3594,2.64063 L19.3594,7.71875 L22.3438,4.98438 L23.0156,4.98438 L19.9063,7.82813 L23.125,11 L22.4844,11 L19.3594,7.92188 L19.3594,11 L18.8594,11 L18.8594,2.64063 M28.125,5.15625 L28.125,5.70313 C27.7708,5.50521 27.5521,5.39583 27.4688,5.375 C27.2188,5.32292 26.9063,5.29167 26.5313,5.28125 C25.9688,5.28125 25.526,5.39063 25.2031,5.60938 C24.9531,5.79688 24.8281,6.11458 24.8281,6.5625 C24.8281,6.875 24.9479,7.11458 25.1875,7.28125 C25.4271,7.46875 25.776,7.61458 26.2344,7.71875 L26.5781,7.78125 C27.151,7.90625 27.5833,8.08333 27.875,8.3125 C28.2188,8.58333 28.3958,8.92708 28.4063,9.34375 C28.4063,9.90625 28.2396,10.349 27.9063,10.6719 C27.5521,10.9948 26.974,11.1563 26.1719,11.1563 C25.7344,11.1563 25.401,11.125 25.1719,11.0625 C24.8906,10.9896 24.599,10.8958 24.2969,10.7813 L24.2969,10.1563 C24.7344,10.4063 25.0156,10.5521 25.1406,10.5938 C25.4948,10.6875 25.849,10.7344 26.2031,10.7344 C26.776,10.7344 27.2031,10.6146 27.4844,10.375 C27.7656,10.125 27.9063,9.80729 27.9063,9.42188 C27.9063,9.08854 27.8125,8.84896 27.625,8.70313 C27.3542,8.48438 26.9271,8.30729 26.3438,8.17188 L26,8.09375 C25.4896,7.96875 25.1042,7.80208 24.8438,7.59375 C24.5104,7.32292 24.3438,6.99479 24.3438,6.60938 C24.3438,5.98438 24.5443,5.53385 24.9453,5.25781 C25.3464,4.98177 25.8385,4.84375 26.4219,4.84375 C26.9219,4.84375 27.2656,4.86979 27.4531,4.92188 C27.6823,4.98438 27.9063,5.0625 28.125,5.15625 M34.7969,13.1719 L34.7969,13.5938 L29.0781,13.5938 L29.0781,13.1719 L34.7969,13.1719 M35.9375,2.64063 L36.4219,2.64063 L36.4219,11 L35.9375,11 L35.9375,2.64063 M43.6719,7.75 L43.6719,8.0625 L39.1094,8.0625 C39.1094,9.02083 39.2969,9.69792 39.6719,10.0938 C40.0885,10.5208 40.7031,10.7344 41.5156,10.7344 C41.7344,10.7344 42.0208,10.6875 42.375,10.5938 C42.7292,10.5 43.0833,10.3594 43.4375,10.1719 L43.4375,10.6875 C43.0833,10.8438 42.7214,10.9609 42.3516,11.0391 C41.9818,11.1172 41.6875,11.1563 41.4688,11.1563 C40.5417,11.1563 39.8438,10.9063 39.375,10.4063 C38.8646,9.875 38.6094,9.09375 38.6094,8.0625 C38.6094,6.98958 38.8385,6.1875 39.2969,5.65625 C39.776,5.11458 40.4427,4.84375 41.2969,4.84375 C42.0781,4.84375 42.6719,5.10417 43.0781,5.625 C43.474,6.16667 43.6719,6.875 43.6719,7.75 M43.1719,7.64063 C43.1719,6.79688 42.9792,6.18229 42.5938,5.79688 C42.2813,5.45313 41.849,5.28125 41.2969,5.28125 C40.7031,5.28125 40.2031,5.45833 39.7969,5.8125 C39.4219,6.14583 39.1979,6.75521 39.125,7.64063 L43.1719,7.64063 M48.3281,2.64063 L48.3281,3.0625 L47.6406,3.0625 C47.276,3.0625 46.9948,3.15625 46.7969,3.34375 C46.5573,3.57292 46.4375,3.94271 46.4375,4.45313 L46.4375,4.98438 L48.0625,4.98438 L48.0625,5.40625 L46.4375,5.40625 L46.4375,11 L45.9375,11 L45.9375,5.40625 L45,5.40625 L45,4.98438 L45.9375,4.98438 L45.9375,4.5625 C45.9375,3.89583 46.0938,3.41146 46.4063,3.10938 C46.7083,2.79688 47.1198,2.64063 47.6406,2.64063 L48.3281,2.64063 M50.125,3.28125 L50.125,4.98438 L52.1563,4.98438 L52.1563,5.40625 L50.125,5.40625 L50.125,9.01563 C50.125,9.47396 50.1823,9.79688 50.2969,9.98438 C50.5469,10.3802 50.9063,10.5781 51.375,10.5781 L52.1563,10.5781 L52.1563,11 L51.3906,11 C50.901,11 50.4844,10.8568 50.1406,10.5703 C49.7969,10.2839 49.625,9.76563 49.625,9.01563 L49.625,5.40625 L48.9063,5.40625 L48.9063,4.98438 L49.625,4.98438 L49.625,3.28125 L50.125,3.28125"/>
</g>

<g fill="none" stroke="#000000" stroke-opacity="1" stroke-width="1" stroke-linecap="square" stroke-linejoin="bevel" transform="matrix(2,0,0,2,408.108,22)"
font-family="sans" font-size="11" font-weight="100" font-style="normal" 
>
</g>

<g fill="none" stroke="#000000" stroke-opacity="1" stroke-width="1" stroke-linecap="square" stroke-linejoin="bevel" transform="matrix(2,0,0,2,408.108,22)"
font-family="Ubuntu" font-size="11" font-weight="400" font-style="normal" 
>
</g>

<g fill="none" stroke="#000000" stroke-opacity="1" stroke-width="1" stroke-linecap="square" stroke-linejoin="bevel" transform="matrix(2,0,0,2,0,288)"
font-family="Ubuntu" font-size="11" font-weight="400" font-style="normal" 
>
</g>

<g fill="none" stroke="#000000" stroke-opacity="1" stroke-width="1" stroke-linecap="square" stroke-linejoin="bevel" transform="matrix(2,0,0,2,0,288)"
font-family="Ubuntu" font-size="11" font-weight="400" font-style="normal" 
>
</g>

<g fill="none" stroke="#000000" stroke-opacity="1" stroke-width="1" stroke-linecap="square" stroke-linejoin="bevel" transform="matrix(2,0,0,2,0,288)"
font-family="Ubuntu" font-size="11" font-weight="400" font-style="normal" 
>
</g>

<g fill="none" stroke="#000000" stroke-opacity="1" stroke-width="1" stroke-linecap="square" stroke-linejoin="round" transform="matrix(2,0,0,2,0,288)"
font-family="Ubuntu" font-size="11" font-weight="400" font-style="normal" 
>
<rect x="190.39" y="-89.5" width="80" height="35"/>
</g>

<g fill="none" stroke="#000000" stroke-opacity="1" stroke-width="1" stroke-linecap="square" stroke-linejoin="bevel" transform="matrix(2,0,0,2,0,288)"
font-family="Ubuntu" font-size="11" font-weight="400" font-style="normal" 
>
</g>

<g fill="none" stroke="#000000" stroke-opacity="1" stroke-width="1" stroke-linecap="square" stroke-linejoin="bevel" transform="matrix(2,0,0,2,395.202,130)"
font-family="Ubuntu" font-size="11" font-weight="400" font-style="normal" 
>
</g>

<g fill="none" stroke="#000000" stroke-opacity="1" stroke-width="1" stroke-linecap="square" stroke-linejoin="bevel" transform="matrix(2,0,0,2,395.202,130)"
font-family="sans" font-size="11" font-weight="100" font-style="normal" 
>
</g>

<g fill="#000000" fill-opacity="1" stroke="#000000" stroke-opacity="1" stroke-width="1" stroke-linecap="square" stroke-linejoin="round" transform="matrix(2,0,0,2,395.202,130)"
font-family="sans" font-size="11" font-weight="100" font-style="normal" 
>
<path vector-effect="none" fill-rule="nonzero" d="M2.96875,2.98438 L3.53125,2.98438 L0.734375,12.0156 L0.171875,12.0156 L2.96875,2.98438 M8.95313,6.35938 L8.95313,2.64063 L9.42188,2.64063 L9.42188,11 L8.95313,11 L8.95313,9.64063 C8.72396,10.1615 8.47396,10.5156 8.20313,10.7031 C7.80729,11.0052 7.42708,11.1563 7.0625,11.1563 C6.35417,11.1563 5.76302,10.8672 5.28906,10.2891 C4.8151,9.71094 4.57813,8.94792 4.57813,8 C4.57813,7.05208 4.8151,6.28906 5.28906,5.71094 C5.76302,5.13281 6.35417,4.84375 7.0625,4.84375 C7.42708,4.84375 7.80729,4.98958 8.20313,5.28125 C8.47396,5.47917 8.72396,5.83854 8.95313,6.35938 M5.71875,5.90625 C5.30208,6.32292 5.09375,7.02083 5.09375,8 C5.09375,8.97917 5.30208,9.67708 5.71875,10.0938 C6.13542,10.5104 6.57292,10.7188 7.03125,10.7188 C7.47917,10.7188 7.91146,10.5104 8.32813,10.0938 C8.73438,9.67708 8.9375,8.97917 8.9375,8 C8.9375,7.02083 8.73438,6.32292 8.32813,5.90625 C7.91146,5.48958 7.47917,5.28125 7.03125,5.28125 C6.57292,5.28125 6.13542,5.48958 5.71875,5.90625 M11.9063,4.98438 L12.4063,4.98438 L12.4063,11 L11.9063,11 L11.9063,4.98438 M11.9063,2.64063 L12.4063,2.64063 L12.4063,3.3125 L11.9063,3.3125 L11.9063,2.64063 M17.375,7.60938 C16.5729,7.60938 15.9974,7.75 15.6484,8.03125 C15.2995,8.3125 15.125,8.72396 15.125,9.26563 C15.125,9.79688 15.2708,10.1745 15.5625,10.3984 C15.8542,10.6224 16.1979,10.7344 16.5938,10.7344 C17.3438,10.7344 17.8854,10.4167 18.2188,9.78125 C18.5521,9.13542 18.7188,8.53125 18.7188,7.96875 L18.7188,7.60938 L17.375,7.60938 M19.2188,7.5625 L19.2188,11 L18.7188,11 L18.7188,9.35938 C18.4479,10.1615 18.0833,10.6719 17.625,10.8906 C17.2708,11.0677 16.9115,11.1563 16.5469,11.1563 C15.9531,11.1563 15.4844,10.9948 15.1406,10.6719 C14.7969,10.349 14.625,9.8776 14.625,9.25781 C14.625,8.63802 14.849,8.14063 15.2969,7.76563 C15.7448,7.39063 16.474,7.20313 17.4844,7.20313 L18.7188,7.20313 L18.7188,7.10938 C18.7188,6.57813 18.5625,6.14063 18.25,5.79688 C17.9583,5.45313 17.4635,5.28125 16.7656,5.28125 C16.4219,5.28125 16.0729,5.34375 15.7188,5.46875 C15.4896,5.55208 15.1875,5.71875 14.8125,5.96875 L14.8125,5.4375 C15.1354,5.23958 15.4375,5.09896 15.7188,5.01563 C16.1146,4.90104 16.4948,4.84375 16.8594,4.84375 C17.5781,4.84375 18.1667,5.05729 18.625,5.48438 C19.0208,5.84896 19.2188,6.54167 19.2188,7.5625 M25.7031,7.92188 C25.7031,7.08854 25.5339,6.44271 25.1953,5.98438 C24.8568,5.52604 24.3802,5.29688 23.7656,5.29688 C23.1615,5.29688 22.6901,5.52604 22.3516,5.98438 C22.013,6.44271 21.8438,7.08854 21.8438,7.92188 C21.8438,8.75521 22.013,9.40104 22.3516,9.85938 C22.6901,10.3177 23.1615,10.5469 23.7656,10.5469 C24.3802,10.5469 24.8568,10.3177 25.1953,9.85938 C25.5339,9.40104 25.7031,8.75521 25.7031,7.92188 M26.1875,10.25 C26.1875,11.5 25.9505,12.3177 25.4766,12.7031 C25.0026,13.0885 24.401,13.2813 23.6719,13.2813 C23.3177,13.2813 22.9896,13.2604 22.6875,13.2188 C22.375,13.1563 22.0729,13.0729 21.7813,12.9688 L21.7813,12.4063 C22.0729,12.5625 22.3594,12.6797 22.6406,12.7578 C22.9219,12.8359 23.2135,12.875 23.5156,12.875 C24.1094,12.875 24.6224,12.7474 25.0547,12.4922 C25.487,12.237 25.7031,11.5521 25.7031,10.4375 L25.7031,9.48438 C25.5469,9.90104 25.3438,10.2292 25.0938,10.4688 C24.6979,10.8229 24.2552,11 23.7656,11 C23.0052,11 22.4115,10.7318 21.9844,10.1953 C21.5573,9.65885 21.3438,8.90104 21.3438,7.92188 C21.3438,6.94271 21.5573,6.1849 21.9844,5.64844 C22.4115,5.11198 23.0052,4.84375 23.7656,4.84375 C24.2552,4.84375 24.6719,4.99479 25.0156,5.29688 C25.2865,5.53646 25.5156,5.85938 25.7031,6.26563 L25.7031,4.98438 L26.1875,4.98438 L26.1875,10.25 M32.8438,7.375 L32.8438,11 L32.3438,11 L32.3438,7.40625 C32.3438,6.625 32.2188,6.07552 31.9688,5.75781 C31.7188,5.4401 31.349,5.28125 30.8594,5.28125 C30.2865,5.28125 29.8021,5.45313 29.4063,5.79688 C28.9896,6.14063 28.7813,6.73958 28.7813,7.59375 L28.7813,11 L28.2969,11 L28.2969,4.98438 L28.7813,4.98438 L28.7813,6.10938 C28.9583,5.74479 29.1927,5.46875 29.4844,5.28125 C29.901,4.98958 30.3646,4.84375 30.875,4.84375 C31.4792,4.84375 31.9583,5.04688 32.3125,5.45313 C32.6667,5.84896 32.8438,6.48958 32.8438,7.375 M38.8438,6.01563 C38.4896,5.52604 38.0052,5.28125 37.3906,5.28125 C36.776,5.28125 36.2917,5.52604 35.9375,6.01563 C35.5833,6.49479 35.4063,7.15104 35.4063,7.98438 C35.4063,8.83854 35.5833,9.51042 35.9375,10 C36.2917,10.4896 36.776,10.7344 37.3906,10.7344 C38.0052,10.7344 38.4896,10.4896 38.8438,10 C39.1979,9.5 39.375,8.82813 39.375,7.98438 C39.375,7.16146 39.1979,6.50521 38.8438,6.01563 M37.3906,4.84375 C38.151,4.84375 38.7552,5.13021 39.2031,5.70313 C39.651,6.27604 39.875,7.03646 39.875,7.98438 C39.875,8.97396 39.651,9.75521 39.2031,10.3281 C38.7552,10.901 38.151,11.1875 37.3906,11.1875 C36.6094,11.1875 35.9948,10.901 35.5469,10.3281 C35.1094,9.75521 34.8906,8.97396 34.8906,7.98438 C34.8906,7.02604 35.1146,6.26302 35.5625,5.69531 C36.0104,5.1276 36.6198,4.84375 37.3906,4.84375 M45.3906,5.15625 L45.3906,5.70313 C45.0365,5.50521 44.8177,5.39583 44.7344,5.375 C44.4844,5.32292 44.1719,5.29167 43.7969,5.28125 C43.2344,5.28125 42.7917,5.39063 42.4688,5.60938 C42.2188,5.79688 42.0938,6.11458 42.0938,6.5625 C42.0938,6.875 42.2135,7.11458 42.4531,7.28125 C42.6927,7.46875 43.0417,7.61458 43.5,7.71875 L43.8438,7.78125 C44.4167,7.90625 44.849,8.08333 45.1406,8.3125 C45.4844,8.58333 45.6615,8.92708 45.6719,9.34375 C45.6719,9.90625 45.5052,10.349 45.1719,10.6719 C44.8177,10.9948 44.2396,11.1563 43.4375,11.1563 C43,11.1563 42.6667,11.125 42.4375,11.0625 C42.1563,10.9896 41.8646,10.8958 41.5625,10.7813 L41.5625,10.1563 C42,10.4063 42.2813,10.5521 42.4063,10.5938 C42.7604,10.6875 43.1146,10.7344 43.4688,10.7344 C44.0417,10.7344 44.4688,10.6146 44.75,10.375 C45.0313,10.125 45.1719,9.80729 45.1719,9.42188 C45.1719,9.08854 45.0781,8.84896 44.8906,8.70313 C44.6198,8.48438 44.1927,8.30729 43.6094,8.17188 L43.2656,8.09375 C42.7552,7.96875 42.3698,7.80208 42.1094,7.59375 C41.776,7.32292 41.6094,6.99479 41.6094,6.60938 C41.6094,5.98438 41.8099,5.53385 42.2109,5.25781 C42.612,4.98177 43.1042,4.84375 43.6875,4.84375 C44.1875,4.84375 44.5313,4.86979 44.7188,4.92188 C44.9479,4.98438 45.1719,5.0625 45.3906,5.15625 M48.2188,3.28125 L48.2188,4.98438 L50.25,4.98438 L50.25,5.40625 L48.2188,5.40625 L48.2188,9.01563 C48.2188,9.47396 48.276,9.79688 48.3906,9.98438 C48.6406,10.3802 49,10.5781 49.4688,10.5781 L50.25,10.5781 L50.25,11 L49.4844,11 C48.9948,11 48.5781,10.8568 48.2344,10.5703 C47.8906,10.2839 47.7188,9.76563 47.7188,9.01563 L47.7188,5.40625 L47,5.40625 L47,4.98438 L47.7188,4.98438 L47.7188,3.28125 L48.2188,3.28125 M52,4.98438 L52.5,4.98438 L52.5,11 L52,11 L52,4.98438 M52,2.64063 L52.5,2.64063 L52.5,3.3125 L52,3.3125 L52,2.64063 M59.1719,5.28125 L59.1719,5.79688 C58.8802,5.61979 58.6354,5.5 58.4375,5.4375 C58.1042,5.33333 57.7865,5.28125 57.4844,5.28125 C56.6198,5.28125 56,5.5026 55.625,5.94531 C55.25,6.38802 55.0625,7.07292 55.0625,8 C55.0625,8.9375 55.25,9.6276 55.625,10.0703 C56,10.513 56.6198,10.7344 57.4844,10.7344 C57.776,10.7344 58.0573,10.6927 58.3281,10.6094 C58.6198,10.5365 58.901,10.4219 59.1719,10.2656 L59.1719,10.7656 C58.901,10.901 58.6198,11 58.3281,11.0625 C58.026,11.125 57.7292,11.1563 57.4375,11.1563 C56.5625,11.1563 55.8646,10.9167 55.3438,10.4375 C54.8229,9.95833 54.5625,9.14323 54.5625,7.99219 C54.5625,6.84115 54.8229,6.02604 55.3438,5.54688 C55.8646,5.07813 56.5625,4.84375 57.4375,4.84375 C57.7292,4.84375 58.0365,4.88542 58.3594,4.96875 C58.6823,5.04167 58.9531,5.14583 59.1719,5.28125 M64.5156,5.15625 L64.5156,5.70313 C64.1615,5.50521 63.9427,5.39583 63.8594,5.375 C63.6094,5.32292 63.2969,5.29167 62.9219,5.28125 C62.3594,5.28125 61.9167,5.39063 61.5938,5.60938 C61.3438,5.79688 61.2188,6.11458 61.2188,6.5625 C61.2188,6.875 61.3385,7.11458 61.5781,7.28125 C61.8177,7.46875 62.1667,7.61458 62.625,7.71875 L62.9688,7.78125 C63.5417,7.90625 63.974,8.08333 64.2656,8.3125 C64.6094,8.58333 64.7865,8.92708 64.7969,9.34375 C64.7969,9.90625 64.6302,10.349 64.2969,10.6719 C63.9427,10.9948 63.3646,11.1563 62.5625,11.1563 C62.125,11.1563 61.7917,11.125 61.5625,11.0625 C61.2813,10.9896 60.9896,10.8958 60.6875,10.7813 L60.6875,10.1563 C61.125,10.4063 61.4063,10.5521 61.5313,10.5938 C61.8854,10.6875 62.2396,10.7344 62.5938,10.7344 C63.1667,10.7344 63.5938,10.6146 63.875,10.375 C64.1563,10.125 64.2969,9.80729 64.2969,9.42188 C64.2969,9.08854 64.2031,8.84896 64.0156,8.70313 C63.7448,8.48438 63.3177,8.30729 62.7344,8.17188 L62.3906,8.09375 C61.8802,7.96875 61.4948,7.80208 61.2344,7.59375 C60.901,7.32292 60.7344,6.99479 60.7344,6.60938 C60.7344,5.98438 60.9349,5.53385 61.3359,5.25781 C61.737,4.98177 62.2292,4.84375 62.8125,4.84375 C63.3125,4.84375 63.6563,4.86979 63.8438,4.92188 C64.0729,4.98438 64.2969,5.0625 64.5156,5.15625 "/>
</g>

<g fill="none" stroke="#000000" stroke-opacity="1" stroke-width="1" stroke-linecap="square" stroke-linejoin="bevel" transform="matrix(2,0,0,2,395.202,130)"
font-family="sans" font-size="11" font-weight="100" font-style="normal" 
>
</g>

<g fill="none" stroke="#000000" stroke-opacity="1" stroke-width="1" stroke-linecap="square" stroke-linejoin="bevel" transform="matrix(2,0,0,2,395.202,130)"
font-family="Ubuntu" font-size="11" font-weight="400" font-style="normal" 
>
</g>

<g fill="none" stroke="#000000" stroke-opacity="1" stroke-width="1" stroke-linecap="square" stroke-linejoin="bevel" transform="matrix(2,0,0,2,0,288)"
font-family="Ubuntu" font-size="11" font-weight="400" font-style="normal" 
>
</g>

<g fill="none" stroke="#000000" stroke-opacity="1" stroke-width="1" stroke-linecap="square" stroke-linejoin="bevel" transform="matrix(2,0,0,2,0,288)"
font-family="Ubuntu" font-size="11" font-weight="400" font-style="normal" 
>
</g>

<g fill="none" stroke="#000000" stroke-opacity="1" stroke-width="1" stroke-linecap="square" stroke-linejoin="bevel" transform="matrix(2,0,0,2,0,288)"
font-family="Ubuntu" font-size="11" font-weight="400" font-style="normal" 
>
</g>

<g fill="none" stroke="#000000" stroke-opacity="1" stroke-width="1" stroke-linecap="square" stroke-linejoin="round" transform="matrix(2,0,0,2,0,288)"
font-family="Ubuntu" font-size="11" font-weight="400" font-style="normal" 
>
<rect x="191.891" y="-35.5" width="76.9976" height="35"/>
</g>

<g fill="none" stroke="#000000" stroke-opacity="1" stroke-width="1" stroke-linecap="square" stroke-linejoin="bevel" transform="matrix(2,0,0,2,0,288)"
font-family="Ubuntu" font-size="11" font-weight="400" font-style="normal" 
>
</g>

<g fill="none" stroke="#000000" stroke-opacity="1" stroke-width="1" stroke-linecap="square" stroke-linejoin="bevel" transform="matrix(2,0,0,2,400.655,238)"
font-family="Ubuntu" font-size="11" font-weight="400" font-style="normal" 
>
</g>

<g fill="none" stroke="#000000" stroke-opacity="1" stroke-width="1" stroke-linecap="square" stroke-linejoin="bevel" transform="matrix(2,0,0,2,400.655,238)"
font-family="sans" font-size="11" font-weight="100" font-style="normal" 
>
</g>

<g fill="#000000" fill-opacity="1" stroke="#000000" stroke-opacity="1" stroke-width="1" stroke-linecap="square" stroke-linejoin="round" transform="matrix(2,0,0,2,400.655,238)"
font-family="sans" font-size="11" font-weight="100" font-style="normal" 
>
<path vector-effect="none" fill-rule="nonzero" d="M2.96875,2.98438 L3.53125,2.98438 L0.734375,12.0156 L0.171875,12.0156 L2.96875,2.98438 M5.46875,3.28125 L5.46875,4.98438 L7.5,4.98438 L7.5,5.40625 L5.46875,5.40625 L5.46875,9.01563 C5.46875,9.47396 5.52604,9.79688 5.64063,9.98438 C5.89063,10.3802 6.25,10.5781 6.71875,10.5781 L7.5,10.5781 L7.5,11 L6.73438,11 C6.24479,11 5.82813,10.8568 5.48438,10.5703 C5.14063,10.2839 4.96875,9.76563 4.96875,9.01563 L4.96875,5.40625 L4.25,5.40625 L4.25,4.98438 L4.96875,4.98438 L4.96875,3.28125 L5.46875,3.28125 M9.25,4.98438 L9.75,4.98438 L9.75,11 L9.25,11 L9.25,4.98438 M9.25,2.64063 L9.75,2.64063 L9.75,3.3125 L9.25,3.3125 L9.25,2.64063 M16.4219,5.28125 L16.4219,5.79688 C16.1302,5.61979 15.8854,5.5 15.6875,5.4375 C15.3542,5.33333 15.0365,5.28125 14.7344,5.28125 C13.8698,5.28125 13.25,5.5026 12.875,5.94531 C12.5,6.38802 12.3125,7.07292 12.3125,8 C12.3125,8.9375 12.5,9.6276 12.875,10.0703 C13.25,10.513 13.8698,10.7344 14.7344,10.7344 C15.026,10.7344 15.3073,10.6927 15.5781,10.6094 C15.8698,10.5365 16.151,10.4219 16.4219,10.2656 L16.4219,10.7656 C16.151,10.901 15.8698,11 15.5781,11.0625 C15.276,11.125 14.9792,11.1563 14.6875,11.1563 C13.8125,11.1563 13.1146,10.9167 12.5938,10.4375 C12.0729,9.95833 11.8125,9.14323 11.8125,7.99219 C11.8125,6.84115 12.0729,6.02604 12.5938,5.54688 C13.1146,5.07813 13.8125,4.84375 14.6875,4.84375 C14.9792,4.84375 15.2865,4.88542 15.6094,4.96875 C15.9323,5.04167 16.2031,5.14583 16.4219,5.28125 M18.8594,2.64063 L19.3594,2.64063 L19.3594,7.71875 L22.3438,4.98438 L23.0156,4.98438 L19.9063,7.82813 L23.125,11 L22.4844,11 L19.3594,7.92188 L19.3594,11 L18.8594,11 L18.8594,2.64063 M28.125,5.15625 L28.125,5.70313 C27.7708,5.50521 27.5521,5.39583 27.4688,5.375 C27.2188,5.32292 26.9063,5.29167 26.5313,5.28125 C25.9688,5.28125 25.526,5.39063 25.2031,5.60938 C24.9531,5.79688 24.8281,6.11458 24.8281,6.5625 C24.8281,6.875 24.9479,7.11458 25.1875,7.28125 C25.4271,7.46875 25.776,7.61458 26.2344,7.71875 L26.5781,7.78125 C27.151,7.90625 27.5833,8.08333 27.875,8.3125 C28.2188,8.58333 28.3958,8.92708 28.4063,9.34375 C28.4063,9.90625 28.2396,10.349 27.9063,10.6719 C27.5521,10.9948 26.974,11.1563 26.1719,11.1563 C25.7344,11.1563 25.401,11.125 25.1719,11.0625 C24.8906,10.9896 24.599,10.8958 24.2969,10.7813 L24.2969,10.1563 C24.7344,10.4063 25.0156,10.5521 25.1406,10.5938 C25.4948,10.6875 25.849,10.7344 26.2031,10.7344 C26.776,10.7344 27.2031,10.6146 27.4844,10.375 C27.7656,10.125 27.9063,9.80729 27.9063,9.42188 C27.9063,9.08854 27.8125,8.84896 27.625,8.70313 C27.3542,8.48438 26.9271,8.30729 26.3438,8.17188 L26,8.09375 C25.4896,7.96875 25.1042,7.80208 24.8438,7.59375 C24.5104,7.32292 24.3438,6.99479 24.3438,6.60938 C24.3438,5.98438 24.5443,5.53385 24.9453,5.25781 C25.3464,4.98177 25.8385,4.84375 26.4219,4.84375 C26.9219,4.84375 27.2656,4.86979 27.4531,4.92188 C27.6823,4.98438 27.9063,5.0625 28.125,5.15625 M34.7969,13.1719 L34.7969,13.5938 L29.0781,13.5938 L29.0781,13.1719 L34.7969,13.1719 M39.2031,5.40625 C39.1198,5.36458 39.0104,5.33333 38.875,5.3125 C38.75,5.29167 38.599,5.28125 38.4219,5.28125 C37.8073,5.28125 37.3021,5.50521 36.9063,5.95313 C36.5833,6.31771 36.4219,6.94271 36.4219,7.82813 L36.4219,11 L35.9375,11 L35.9375,4.98438 L36.4219,4.98438 L36.4219,6.10938 C36.5885,5.78646 36.8177,5.51563 37.1094,5.29688 C37.5052,4.99479 37.974,4.84375 38.5156,4.84375 C38.6615,4.84375 38.7865,4.84896 38.8906,4.85938 C38.9948,4.85938 39.099,4.86979 39.2031,4.89063 L39.2031,5.40625 M40.4375,4.98438 L40.9375,4.98438 L40.9375,11 L40.4375,11 L40.4375,4.98438 M40.4375,2.64063 L40.9375,2.64063 L40.9375,3.3125 L40.4375,3.3125 L40.4375,2.64063 M47.5,7.92188 C47.5,7.08854 47.3307,6.44271 46.9922,5.98438 C46.6536,5.52604 46.1771,5.29688 45.5625,5.29688 C44.9583,5.29688 44.487,5.52604 44.1484,5.98438 C43.8099,6.44271 43.6406,7.08854 43.6406,7.92188 C43.6406,8.75521 43.8099,9.40104 44.1484,9.85938 C44.487,10.3177 44.9583,10.5469 45.5625,10.5469 C46.1771,10.5469 46.6536,10.3177 46.9922,9.85938 C47.3307,9.40104 47.5,8.75521 47.5,7.92188 M47.9844,10.25 C47.9844,11.5 47.7474,12.3177 47.2734,12.7031 C46.7995,13.0885 46.1979,13.2813 45.4688,13.2813 C45.1146,13.2813 44.7865,13.2604 44.4844,13.2188 C44.1719,13.1563 43.8698,13.0729 43.5781,12.9688 L43.5781,12.4063 C43.8698,12.5625 44.1563,12.6797 44.4375,12.7578 C44.7188,12.8359 45.0104,12.875 45.3125,12.875 C45.9063,12.875 46.4193,12.7474 46.8516,12.4922 C47.2839,12.237 47.5,11.5521 47.5,10.4375 L47.5,9.48438 C47.3438,9.90104 47.1406,10.2292 46.8906,10.4688 C46.4948,10.8229 46.0521,11 45.5625,11 C44.8021,11 44.2083,10.7318 43.7813,10.1953 C43.3542,9.65885 43.1406,8.90104 43.1406,7.92188 C43.1406,6.94271 43.3542,6.1849 43.7813,5.64844 C44.2083,5.11198 44.8021,4.84375 45.5625,4.84375 C46.0521,4.84375 46.4688,4.99479 46.8125,5.29688 C47.0833,5.53646 47.3125,5.85938 47.5,6.26563 L47.5,4.98438 L47.9844,4.98438 L47.9844,10.25 M54.6406,7.375 L54.6406,11 L54.1406,11 L54.1406,7.40625 C54.1406,6.625 54.0104,6.07552 53.75,5.75781 C53.4896,5.4401 53.0938,5.28125 52.5625,5.28125 C51.9479,5.28125 51.4635,5.45833 51.1094,5.8125 C50.7552,6.16667 50.5781,6.76042 50.5781,7.59375 L50.5781,11 L50.0938,11 L50.0938,2.64063 L50.5781,2.64063 L50.5781,6.09375 C50.6927,5.79167 50.901,5.52083 51.2031,5.28125 C51.5469,4.98958 52.0365,4.84375 52.6719,4.84375 C53.276,4.84375 53.7552,5.05729 54.1094,5.48438 C54.4635,5.91146 54.6406,6.54167 54.6406,7.375 M57.5781,3.28125 L57.5781,4.98438 L59.6094,4.98438 L59.6094,5.40625 L57.5781,5.40625 L57.5781,9.01563 C57.5781,9.47396 57.6354,9.79688 57.75,9.98438 C58,10.3802 58.3594,10.5781 58.8281,10.5781 L59.6094,10.5781 L59.6094,11 L58.8438,11 C58.3542,11 57.9375,10.8568 57.5938,10.5703 C57.25,10.2839 57.0781,9.76563 57.0781,9.01563 L57.0781,5.40625 L56.3594,5.40625 L56.3594,4.98438 L57.0781,4.98438 L57.0781,3.28125 L57.5781,3.28125"/>
</g>

<g fill="none" stroke="#000000" stroke-opacity="1" stroke-width="1" stroke-linecap="square" stroke-linejoin="bevel" transform="matrix(2,0,0,2,400.655,238)"
font-family="sans" font-size="11" font-weight="100" font-style="normal" 
>
</g>

<g fill="none" stroke="#000000" stroke-opacity="1" stroke-width="1" stroke-linecap="square" stroke-linejoin="bevel" transform="matrix(2,0,0,2,400.655,238)"
font-family="Ubuntu" font-size="11" font-weight="400" font-style="normal" 
>
</g>

<g fill="none" stroke="#000000" stroke-opacity="1" stroke-width="1" stroke-linecap="square" stroke-linejoin="bevel" transform="matrix(2,0,0,2,0,288)"
font-family="Ubuntu" font-size="11" font-weight="400" font-style="normal" 
>
</g>

<g fill="none" stroke="#000000" stroke-opacity="1" stroke-width="1" stroke-linecap="square" stroke-linejoin="bevel" transform="matrix(2,0,0,2,0,288)"
font-family="Ubuntu" font-size="11" font-weight="400" font-style="normal" 
>
</g>

<g fill="none" stroke="#000000" stroke-opacity="1" stroke-width="1" stroke-linecap="square" stroke-linejoin="bevel" transform="matrix(2,0,0,2,0,288)"
font-family="Ubuntu" font-size="11" font-weight="400" font-style="normal" 
>
</g>

<g fill="none" stroke="#000000" stroke-opacity="1" stroke-width="1" stroke-linecap="square" stroke-linejoin="round" transform="matrix(2,0,0,2,0,288)"
font-family="Ubuntu" font-size="11" font-weight="400" font-style="normal" 
>
<path vector-effect="none" fill-rule="evenodd" d="M54.386,-72 C55.459,-72 56.55,-72 57.656,-72 "/>
</g>

<g fill="none" stroke="#000000" stroke-opacity="1" stroke-width="1" stroke-linecap="square" stroke-linejoin="bevel" transform="matrix(2,0,0,2,0,288)"
font-family="Ubuntu" font-size="11" font-weight="400" font-style="normal" 
>
</g>

<g fill="none" stroke="#000000" stroke-opacity="1" stroke-width="1" stroke-linecap="square" stroke-linejoin="bevel" transform="matrix(2,0,0,2,0,288)"
font-family="Ubuntu" font-size="11" font-weight="400" font-style="normal" 
>
</g>

<g fill="#000000" fill-opacity="1" stroke="#000000" stroke-opacity="1" stroke-width="1" stroke-linecap="square" stroke-linejoin="round" transform="matrix(2,0,0,2,0,288)"
font-family="Ubuntu" font-size="11" font-weight="400" font-style="normal" 
>
<path vector-effect="none" fill-rule="evenodd" d="M57.656,-72 L57.656,-68.4065 L67.923,-72 L57.656,-75.5935 L57.656,-72"/>
</g>

<g fill="none" stroke="#000000" stroke-opacity="1" stroke-width="1" stroke-linecap="square" stroke-linejoin="bevel" transform="matrix(2,0,0,2,0,288)"
font-family="Ubuntu" font-size="11" font-weight="400" font-style="normal" 
>
</g>

<g fill="none" stroke="#000000" stroke-opacity="1" stroke-width="1" stroke-linecap="square" stroke-linejoin="bevel" transform="matrix(2,0,0,2,0,288)"
font-family="Ubuntu" font-size="11" font-weight="400" font-style="normal" 
>
</g>

<g fill="none" stroke="#000000" stroke-opacity="1" stroke-width="1" stroke-linecap="square" stroke-linejoin="bevel" transform="matrix(2,0,0,2,0,288)"
font-family="Ubuntu" font-size="11" font-weight="400" font-style="normal" 
>
</g>

<g fill="none" stroke="#000000" stroke-opacity="1" stroke-width="1" stroke-linecap="square" stroke-linejoin="bevel" transform="matrix(2,0,0,2,0,288)"
font-family="Ubuntu" font-size="11" font-weight="400" font-style="normal" 
>
</g>

<g fill="none" stroke="#000000" stroke-opacity="1" stroke-width="1" stroke-linecap="square" stroke-linejoin="round" transform="matrix(2,0,0,2,0,288)"
font-family="Ubuntu" font-size="11" font-weight="400" font-style="normal" 
>
<path vector-effect="none" fill-rule="evenodd" d="M152.31,-86.899 C162.6,-92.118 174.39,-98.098 185.6,-103.79 "/>
</g>

<g fill="none" stroke="#000000" stroke-opacity="1" stroke-width="1" stroke-linecap="square" stroke-linejoin="bevel" transform="matrix(2,0,0,2,0,288)"
font-family="Ubuntu" font-size="11" font-weight="400" font-style="normal" 
>
</g>

<g fill="none" stroke="#000000" stroke-opacity="1" stroke-width="1" stroke-linecap="square" stroke-linejoin="bevel" transform="matrix(2,0,0,2,0,288)"
font-family="Ubuntu" font-size="11" font-weight="400" font-style="normal" 
>
</g>

<g fill="#000000" fill-opacity="1" stroke="#000000" stroke-opacity="1" stroke-width="1" stroke-linecap="square" stroke-linejoin="round" transform="matrix(2,0,0,2,0,288)"
font-family="Ubuntu" font-size="11" font-weight="400" font-style="normal" 
>
<path vector-effect="none" fill-rule="evenodd" d="M185.6,-103.79 L187.238,-100.556 L194.84,-108.47 L183.962,-107.024 L185.6,-103.79"/>
</g>

<g fill="none" stroke="#000000" stroke-opacity="1" stroke-width="1" stroke-linecap="square" stroke-linejoin="bevel" transform="matrix(2,0,0,2,0,288)"
font-family="Ubuntu" font-size="11" font-weight="400" font-style="normal" 
>
</g>

<g fill="none" stroke="#000000" stroke-opacity="1" stroke-width="1" stroke-linecap="square" stroke-linejoin="bevel" transform="matrix(2,0,0,2,0,288)"
font-family="Ubuntu" font-size="11" font-weight="400" font-style="normal" 
>
</g>

<g fill="none" stroke="#000000" stroke-opacity="1" stroke-width="1" stroke-linecap="square" stroke-linejoin="bevel" transform="matrix(2,0,0,2,0,288)"
font-family="Ubuntu" font-size="11" font-weight="400" font-style="normal" 
>
</g>

<g fill="none" stroke="#000000" stroke-opacity="1" stroke-width="1" stroke-linecap="square" stroke-linejoin="bevel" transform="matrix(2,0,0,2,0,288)"
font-family="Ubuntu" font-size="11" font-weight="400" font-style="normal" 
>
</g>

<g fill="none" stroke="#000000" stroke-opacity="1" stroke-width="1" stroke-linecap="square" stroke-linejoin="round" transform="matrix(2,0,0,2,0,288)"
font-family="Ubuntu" font-size="11" font-weight="400" font-style="normal" 
>
<path vector-effect="none" fill-rule="evenodd" d="M176.17,-72 C177.31,-72 178.45,-72 179.6,-72 "/>
</g>

<g fill="none" stroke="#000000" stroke-opacity="1" stroke-width="1" stroke-linecap="square" stroke-linejoin="bevel" transform="matrix(2,0,0,2,0,288)"
font-family="Ubuntu" font-size="11" font-weight="400" font-style="normal" 
>
</g>

<g fill="none" stroke="#000000" stroke-opacity="1" stroke-width="1" stroke-linecap="square" stroke-linejoin="bevel" transform="matrix(2,0,0,2,0,288)"
font-family="Ubuntu" font-size="11" font-weight="400" font-style="normal" 
>
</g>

<g fill="#000000" fill-opacity="1" stroke="#000000" stroke-opacity="1" stroke-width="1" stroke-linecap="square" stroke-linejoin="round" transform="matrix(2,0,0,2,0,288)"
font-family="Ubuntu" font-size="11" font-weight="400" font-style="normal" 
>
<path vector-effect="none" fill-rule="evenodd" d="M179.6,-72 L179.6,-68.4475 L189.75,-72 L179.6,-75.5525 L179.6,-72"/>
</g>

<g fill="none" stroke="#000000" stroke-opacity="1" stroke-width="1" stroke-linecap="square" stroke-linejoin="bevel" transform="matrix(2,0,0,2,0,288)"
font-family="Ubuntu" font-size="11" font-weight="400" font-style="normal" 
>
</g>

<g fill="none" stroke="#000000" stroke-opacity="1" stroke-width="1" stroke-linecap="square" stroke-linejoin="bevel" transform="matrix(2,0,0,2,0,288)"
font-family="Ubuntu" font-size="11" font-weight="400" font-style="normal" 
>
</g>

<g fill="none" stroke="#000000" stroke-opacity="1" stroke-width="1" stroke-linecap="square" stroke-linejoin="bevel" transform="matrix(2,0,0,2,0,288)"
font-family="Ubuntu" font-size="11" font-weight="400" font-style="normal" 
>
</g>

<g fill="none" stroke="#000000" stroke-opacity="1" stroke-width="1" stroke-linecap="square" stroke-linejoin="bevel" transform="matrix(2,0,0,2,0,288)"
font-family="Ubuntu" font-size="11" font-weight="400" font-style="normal" 
>
</g>

<g fill="none" stroke="#000000" stroke-opacity="1" stroke-width="1" stroke-linecap="square" stroke-linejoin="round" transform="matrix(2,0,0,2,0,288)"
font-family="Ubuntu" font-size="11" font-weight="400" font-style="normal" 
>
<path vector-effect="none" fill-rule="evenodd" d="M152.31,-57.101 C162.31,-52.028 173.73,-46.237 184.66,-40.694 "/>
</g>

<g fill="none" stroke="#000000" stroke-opacity="1" stroke-width="1" stroke-linecap="square" stroke-linejoin="bevel" transform="matrix(2,0,0,2,0,288)"
font-family="Ubuntu" font-size="11" font-weight="400" font-style="normal" 
>
</g>

<g fill="none" stroke="#000000" stroke-opacity="1" stroke-width="1" stroke-linecap="square" stroke-linejoin="bevel" transform="matrix(2,0,0,2,0,288)"
font-family="Ubuntu" font-size="11" font-weight="400" font-style="normal" 
>
</g>

<g fill="#000000" fill-opacity="1" stroke="#000000" stroke-opacity="1" stroke-width="1" stroke-linecap="square" stroke-linejoin="round" transform="matrix(2,0,0,2,0,288)"
font-family="Ubuntu" font-size="11" font-weight="400" font-style="normal" 
>
<path vector-effect="none" fill-rule="evenodd" d="M184.66,-40.694 L183.058,-37.537 L193.68,-36.117 L186.262,-43.851 L184.66,-40.694"/>
</g>

<g fill="none" stroke="#000000" stroke-opacity="1" stroke-width="1" stroke-linecap="square" stroke-linejoin="bevel" transform="matrix(2,0,0,2,0,288)"
font-family="Ubuntu" font-size="11" font-weight="400" font-style="normal" 
>
</g>

<g fill="none" stroke="#000000" stroke-opacity="1" stroke-width="1" stroke-linecap="square" stroke-linejoin="bevel" transform="matrix(1,0,0,1,0,0)"
font-family="Ubuntu" font-size="11" font-weight="400" font-style="normal" 
>
</g>
</g>
</svg>
